<?xml version="1.0" encoding="utf-8"?>
<!-- Generator: Adobe Illustrator 26.3.1, SVG Export Plug-In . SVG Version: 6.00 Build 0)  -->
<svg version="1.1" id="Layer_1" xmlns="http://www.w3.org/2000/svg" xmlns:xlink="http://www.w3.org/1999/xlink" x="0px" y="0px"
	 viewBox="0 0 59.5 59.5" style="enable-background:new 0 0 59.5 59.5;" xml:space="preserve">
<style type="text/css">
	.st0{fill:#FFC261;}
	.st1{fill:#FFE1B0;}
</style>
<path class="st0" d="M43.7,28.9c-0.8,0-1.7-0.3-2.2-1L30.5,16.2c-0.4-0.4-1-0.4-1.4,0c0,0,0,0,0,0L18.2,27.8
	c-1.2,1.2-3.1,1.3-4.4,0.1c-1.2-1.2-1.3-3.1-0.1-4.4l0,0L26,10.4c2-2,5.3-2.1,7.3-0.1c0,0,0,0,0,0l12.5,13.4
	c1.2,1.2,1.1,3.2-0.1,4.4C45.2,28.6,44.5,28.9,43.7,28.9z"/>
<path class="st1" d="M43.7,48.2c-0.8,0-1.7-0.3-2.2-1l-11-11.7c-0.4-0.4-1-0.4-1.4,0c0,0,0,0,0,0L18.2,47.2
	c-1.2,1.2-3.1,1.3-4.4,0.1s-1.3-3.1-0.1-4.4l12.4-13.2c2-2,5.3-2.1,7.3-0.1c0,0,0,0,0,0L45.9,43c1.2,1.2,1.1,3.2-0.1,4.4
	C45.2,47.9,44.5,48.2,43.7,48.2z"/>
</svg>
